<svg width="40" height="40" viewBox="0 0 40 40" fill="none" xmlns="http://www.w3.org/2000/svg">
<path d="M9.99992 23.333H29.9999V20.5551H9.99992V23.333ZM9.99992 18.0551H29.9999V15.2776H9.99992V18.0551ZM9.99992 12.7776H29.9999V9.99968H9.99992V12.7776ZM36.6666 36.6663L29.9999 29.9997H6.11117C5.36117 29.9997 4.71061 29.7243 4.1595 29.1734C3.60867 28.6223 3.33325 27.9718 3.33325 27.2218V6.11092C3.33325 5.36092 3.60867 4.71037 4.1595 4.15926C4.71061 3.60843 5.36117 3.33301 6.11117 3.33301H33.8887C34.6387 3.33301 35.2892 3.60843 35.8403 4.15926C36.3912 4.71037 36.6666 5.36092 36.6666 6.11092V36.6663ZM6.11117 27.2218H31.1945L33.8887 30.0693V6.11092H6.11117V27.2218Z" fill="#74B378"/>
</svg>
