<svg width="40" height="40" viewBox="0 0 40 40" fill="none" xmlns="http://www.w3.org/2000/svg">
<path d="M6.8195 34.9996V30.7217H12.0695L7.70825 16.0276C6.86575 15.6109 6.19672 15.0321 5.70117 14.2913C5.20589 13.5505 4.95825 12.6384 4.95825 11.5551C4.95825 10.2217 5.43978 9.07366 6.40284 8.11088C7.36561 7.14783 8.51367 6.6663 9.847 6.6663C11.0231 6.6663 12.0209 6.98811 12.8403 7.63172C13.6598 8.27505 14.2176 9.11991 14.5137 10.1663H20.347V7.97172C20.347 7.59227 20.4837 7.26588 20.757 6.99255C21.0301 6.7195 21.3564 6.58297 21.7362 6.58297C22.0231 6.58297 22.2753 6.68019 22.4928 6.87463C22.7106 7.06908 22.8473 7.30519 22.9028 7.58297L25.9303 4.69422C26.162 4.46255 26.4514 4.312 26.7987 4.24255C27.1459 4.17311 27.4953 4.22172 27.847 4.38838L34.4028 7.49963C34.6806 7.64769 34.8727 7.85838 34.9791 8.13172C35.0855 8.40477 35.0692 8.68477 34.9303 8.97172C34.7823 9.26811 34.567 9.45102 34.2845 9.52047C34.0023 9.58991 33.7269 9.55519 33.4583 9.4163L27.1528 6.4163L23.1249 10.3884V12.6109L27.1528 16.6663L33.4583 13.6384C33.7452 13.4995 34.0276 13.4717 34.3053 13.5551C34.5831 13.6384 34.7914 13.8237 34.9303 14.1109C35.0787 14.407 35.0973 14.6987 34.9862 14.9859C34.8751 15.2728 34.6713 15.4903 34.3749 15.6384L27.9583 18.6663C27.588 18.8516 27.2245 18.928 26.8678 18.8955C26.5114 18.863 26.1989 18.7126 25.9303 18.4442L22.9028 15.5551C22.8473 15.8701 22.7106 16.1155 22.4928 16.2913C22.2753 16.4671 22.0231 16.5551 21.7362 16.5551C21.3564 16.5551 21.0301 16.4185 20.757 16.1455C20.4837 15.8724 20.347 15.546 20.347 15.1663V12.9442H14.4583C14.4305 13.2403 14.3402 13.5366 14.1874 13.833C14.0346 14.1294 13.8471 14.3887 13.6249 14.6109L22.097 30.7217H28.4862V34.9996H6.8195ZM9.847 13.6663C10.4489 13.6663 10.9513 13.4649 11.3541 13.0621C11.7569 12.6594 11.9583 12.157 11.9583 11.5551C11.9583 10.9534 11.7569 10.4512 11.3541 10.0484C10.9513 9.64561 10.4489 9.44422 9.847 9.44422C9.24534 9.44422 8.74311 9.64561 8.34034 10.0484C7.93756 10.4512 7.73617 10.9534 7.73617 11.5551C7.73617 12.157 7.93756 12.6594 8.34034 13.0621C8.74311 13.4649 9.24534 13.6663 9.847 13.6663ZM15.0416 30.7217H18.9583L11.3195 16.083C11.2639 16.1199 11.162 16.157 11.0137 16.1942C10.8656 16.2312 10.7545 16.2589 10.6803 16.2776L15.0416 30.7217Z" fill="#74B378"/>
</svg>
