<svg width="40" height="40" viewBox="0 0 40 40" fill="none" xmlns="http://www.w3.org/2000/svg">
<path d="M9.61133 33.3337C8.78716 33.3337 8.09036 33.0489 7.52091 32.4795C6.95147 31.91 6.66675 31.2132 6.66675 30.3891C6.66675 29.5652 6.95147 28.8685 7.52091 28.2991C8.09036 27.7296 8.78716 27.4449 9.61133 27.4449C10.4352 27.4449 11.1319 27.7296 11.7013 28.2991C12.2708 28.8685 12.5555 29.5652 12.5555 30.3891C12.5555 31.2132 12.2708 31.91 11.7013 32.4795C11.1319 33.0489 10.4352 33.3337 9.61133 33.3337ZM9.61133 22.9449C8.78716 22.9449 8.09036 22.6602 7.52091 22.0907C6.95147 21.5213 6.66675 20.8245 6.66675 20.0003C6.66675 19.1762 6.95147 18.4794 7.52091 17.9099C8.09036 17.3405 8.78716 17.0557 9.61133 17.0557C10.4352 17.0557 11.1319 17.3405 11.7013 17.9099C12.2708 18.4794 12.5555 19.1762 12.5555 20.0003C12.5555 20.8245 12.2708 21.5213 11.7013 22.0907C11.1319 22.6602 10.4352 22.9449 9.61133 22.9449ZM9.61133 12.5557C8.78716 12.5557 8.09036 12.271 7.52091 11.7016C6.95147 11.1321 6.66675 10.4355 6.66675 9.61157C6.66675 8.78741 6.95147 8.0906 7.52091 7.52116C8.09036 6.95171 8.78716 6.66699 9.61133 6.66699C10.4352 6.66699 11.1319 6.95171 11.7013 7.52116C12.2708 8.0906 12.5555 8.78741 12.5555 9.61157C12.5555 10.4355 12.2708 11.1321 11.7013 11.7016C11.1319 12.271 10.4352 12.5557 9.61133 12.5557ZM20.0001 12.5557C19.1759 12.5557 18.4791 12.271 17.9097 11.7016C17.3402 11.1321 17.0555 10.4355 17.0555 9.61157C17.0555 8.78741 17.3402 8.0906 17.9097 7.52116C18.4791 6.95171 19.1759 6.66699 20.0001 6.66699C20.8242 6.66699 21.5211 6.95171 22.0905 7.52116C22.6599 8.0906 22.9447 8.78741 22.9447 9.61157C22.9447 10.4355 22.6599 11.1321 22.0905 11.7016C21.5211 12.271 20.8242 12.5557 20.0001 12.5557ZM30.3888 12.5557C29.5649 12.5557 28.8683 12.271 28.2988 11.7016C27.7294 11.1321 27.4447 10.4355 27.4447 9.61157C27.4447 8.78741 27.7294 8.0906 28.2988 7.52116C28.8683 6.95171 29.5649 6.66699 30.3888 6.66699C31.213 6.66699 31.9098 6.95171 32.4792 7.52116C33.0487 8.0906 33.3334 8.78741 33.3334 9.61157C33.3334 10.4355 33.0487 11.1321 32.4792 11.7016C31.9098 12.271 31.213 12.5557 30.3888 12.5557ZM20.0047 22.9449C19.1961 22.9449 18.5024 22.657 17.9238 22.0812C17.3449 21.5053 17.0555 20.8132 17.0555 20.0049C17.0555 19.1963 17.3434 18.5027 17.9192 17.9241C18.4951 17.3452 19.1872 17.0557 19.9955 17.0557C20.8041 17.0557 21.4977 17.3437 22.0763 17.9195C22.6552 18.4953 22.9447 19.1874 22.9447 19.9957C22.9447 20.8044 22.6567 21.498 22.0809 22.0766C21.5051 22.6555 20.813 22.9449 20.0047 22.9449ZM21.6667 33.3337V28.2087L30.8751 19.042C31.1251 18.792 31.4029 18.6114 31.7084 18.5003C32.014 18.3892 32.3195 18.3337 32.6251 18.3337C32.9584 18.3337 33.2779 18.3962 33.5834 18.5212C33.889 18.6462 34.1667 18.8337 34.4167 19.0837L35.9584 20.6253C36.1992 20.8753 36.3774 21.1531 36.493 21.4587C36.6088 21.7642 36.6667 22.0698 36.6667 22.3753C36.6667 22.6809 36.6066 22.9934 36.4863 23.3128C36.3658 23.6323 36.1813 23.917 35.933 24.167L26.7917 33.3337H21.6667ZM24.1667 30.8337H25.7501L30.7917 25.7503L30.0417 24.9587L29.2501 24.2087L24.1667 29.2503V30.8337ZM30.0417 24.9587L29.2501 24.2087L30.7917 25.7503L30.0417 24.9587Z" fill="#74B378"/>
</svg>
